<svg width="29" height="29" viewBox="0 0 29 29" fill="none" xmlns="http://www.w3.org/2000/svg">
<path fill-rule="evenodd" clip-rule="evenodd" d="M14.3911 28.5525H14.3852C12.1299 28.5518 9.91172 28.0174 7.91649 27.0006C7.68928 26.8848 7.42792 26.8514 7.18126 26.9162L1.6757 28.3604C0.931021 28.5558 0.254159 27.8716 0.457449 27.1291L1.91442 21.8073C1.98493 21.5497 1.94799 21.2755 1.82137 21.0404C0.70452 18.9668 0.118656 16.6454 0.1196 14.2702C0.1228 6.40171 6.5248 0 14.3909 0C18.2086 0.00165 21.7918 1.48791 24.4862 4.18541C27.1806 6.88281 28.6636 10.4683 28.6621 14.2815C28.659 22.1483 22.2595 28.5493 14.3911 28.5525ZM7.51145 24.338C7.77023 24.2701 8.04541 24.3088 8.27549 24.4453L8.349 24.4889C10.1702 25.5697 12.2578 26.1415 14.3863 26.1423H14.3911C20.9288 26.1423 26.2499 20.8211 26.2525 14.2807C26.2538 11.1112 25.0212 8.13111 22.7817 5.88901C20.5422 3.64691 17.564 2.41151 14.3957 2.41041C7.8529 2.41041 2.5318 7.73111 2.5292 14.2711C2.5283 16.5124 3.1554 18.6951 4.3427 20.5836L4.39085 20.6602C4.53993 20.8974 4.58269 21.1862 4.50872 21.4564L3.88393 23.7386C3.68064 24.4812 4.35748 25.1653 5.10216 24.97L7.51145 24.338ZM21.0924 17.354C21.3411 17.4742 21.5091 17.5554 21.5808 17.6751C21.6699 17.8238 21.6699 18.5378 21.3729 19.3708C21.0756 20.2038 19.651 20.964 18.9659 21.0663C18.3516 21.1582 17.5741 21.1965 16.7199 20.925C16.202 20.7607 15.5379 20.5413 14.6871 20.1739C11.3442 18.7304 9.085 15.4904 8.658 14.878C8.6281 14.8351 8.6072 14.8051 8.5955 14.7895L8.5927 14.7857C8.404 14.5339 7.1395 12.8468 7.1395 11.1008C7.1395 9.45821 7.9463 8.59731 8.3177 8.20101C8.3432 8.17391 8.3666 8.14891 8.3875 8.12601C8.7144 7.76901 9.1007 7.67971 9.3384 7.67971C9.5761 7.67971 9.8141 7.68191 10.0219 7.69241C10.0475 7.69371 10.0742 7.69351 10.1017 7.69331C10.3095 7.69211 10.5686 7.69061 10.8242 8.30451C10.9225 8.54071 11.0664 8.89101 11.2181 9.26041C11.5249 10.0074 11.864 10.8328 11.9236 10.9522C12.0128 11.1307 12.0722 11.3389 11.9533 11.5769C11.9355 11.6126 11.919 11.6463 11.9032 11.6785C11.8139 11.8608 11.7483 11.9948 11.5967 12.1718C11.5372 12.2413 11.4756 12.3163 11.414 12.3913C11.2913 12.5407 11.1687 12.6901 11.0619 12.7965C10.8833 12.9743 10.6975 13.1672 10.9055 13.5242C11.1135 13.8812 11.8292 15.0489 12.8892 15.9945C14.0288 17.0109 15.0192 17.4405 15.5212 17.6582C15.6192 17.7008 15.6986 17.7352 15.7569 17.7644C16.1133 17.9429 16.3213 17.913 16.5294 17.6751C16.7374 17.4371 17.4208 16.6338 17.6584 16.2769C17.8961 15.9201 18.1339 15.9795 18.4607 16.0984C18.7877 16.2176 20.5408 17.0801 20.8974 17.2586C20.967 17.2934 21.0321 17.3249 21.0924 17.354Z" fill="white"/>
</svg>
